<svg xmlns="http://www.w3.org/2000/svg" width="196.902" height="134.667" viewBox="0 0 196.902 134.667"><g transform="translate(-0.002 -0.103)"><path d="M916.662,379.595q4.071,4.27,9.084,1.363a10.428,10.428,0,0,1-1.363-7.267h-6.51C918.162,375.953,918.084,378.06,916.662,379.595Z" transform="translate(-747.619 -323.276)" fill="#ffb8b8"/><path d="M795.962,477.172l3.482-1.817,1.514-19.228V445.984l-8.024-.151,2.271,10.144Z" transform="translate(-616.169 -346.366)" fill="#ffb8b8"/><path d="M743.823,477.172l-3.482-1.817-1.514-19.228V445.984l8.024-.151-2.271,10.144Z" transform="translate(-574.124 -346.366)" fill="#ffb8b8"/><path d="M891.914,557.479l8.478-.757L901.755,549l1.665,7.57,9.235-.606a32.287,32.287,0,0,0-1.514-11.355l-20.287-.454Z" transform="translate(-727.564 -455.741)" fill="#2f2e41"/><path d="M804.924,429.2l-10.2-7.853a1.485,1.485,0,0,0-.346-.2l-1.482-.6c-1.191-.484-3.458-2.1-2.352-3.755.892-1.338,4.3,1.059,4.725,1.946a1.467,1.467,0,0,0,.622.658l2.073,1.136a1.493,1.493,0,0,0,.156.074l7.891,3.2a1.483,1.483,0,0,0,1.352-.122l1.431-.907a1.483,1.483,0,0,1,2.249.964l.473,2.386a1.483,1.483,0,0,1-.927,1.674l-4.231,1.612A1.483,1.483,0,0,1,804.924,429.2Z" transform="translate(-649.386 -356.459)" fill="#ffb8b8"/><path d="M864.576,412.988c2.824-.757,2.527,3.188,4.681,5.127l4.236-3.344-2.453-11.878h0a4.415,4.415,0,0,0-2.909,2.664Z" transform="translate(-707.144 -345.969)" fill="#e5d223"/><path d="M888.137,429.864h21.347c-3.455-9.31-3.119-18.885-.177-28.643a.727.727,0,0,0-.357-.856l-6.127-3.2c-2.405,1.565-4.99,1.084-7.721-1.06l-6.662,1.817A86.083,86.083,0,0,1,888.137,429.864Z" transform="translate(-725.453 -340.692)" fill="#e5d223"/><path d="M875.364,727.524l-8.9.377a1.57,1.57,0,0,1-1.62-1.337h0a1.57,1.57,0,0,1,1.179-1.758l1.509-.37L873.467,721a11.238,11.238,0,0,0,3.568,2.334l.017,2.417A1.763,1.763,0,0,1,875.364,727.524Z" transform="translate(-707.342 -593.162)" fill="#2f2e41"/><path d="M197.063,602.5H.321v-.486h196.83Z" transform="translate(-0.248 -467.733)" fill="#3f3d56"/><path d="M966.186,726.918l8.9.377a1.57,1.57,0,0,0,1.62-1.337h0a1.57,1.57,0,0,0-1.179-1.758l-1.509-.37-5.931-3.437a11.236,11.236,0,0,1-3.568,2.334l-.017,2.417A1.763,1.763,0,0,0,966.186,726.918Z" transform="translate(-784.791 -592.691)" fill="#2f2e41"/><circle cx="4.845" cy="4.845" r="4.845" transform="translate(167.983 43.45)" fill="#ffb8b8"/><path d="M961.174,480.069l-1.6,3.112a2.188,2.188,0,0,0,1.178,3.05h0a2.188,2.188,0,0,0,2.934-1.733l.668-4.58,2.422-11.506-.151-5.753H961.78C963.432,466.937,962.612,473.249,961.174,480.069Z" transform="translate(-780.776 -392.411)" fill="#ffb8b8"/><path d="M966.918,424.738h6.51l-.945-7.14a5.848,5.848,0,0,0-3.294-4.518h0Z" transform="translate(-786.671 -353.886)" fill="#e5d223"/><path d="M916.346,334.241a4.658,4.658,0,0,0-1.018-3.659,4.526,4.526,0,0,0-4.511-1.4c-5.015.824-6.461,5-5.97,6.049s2,3.484,2,3.484-1.105-2.409.094-2.9,5.842-2.422,7.463-1.552a2.9,2.9,0,0,1,1.6,2.447Z" transform="translate(-738.367 -288.615)" fill="#2f2e41"/><path d="M279.059,173.364l-1.948.988a44.181,44.181,0,1,0-58.684,59.764l-.953,1.965a46.366,46.366,0,1,1,61.585-62.718Z" transform="translate(-184.001 -147.901)" fill="#e6e6e6"/><path d="M273.99,434.32a15.588,15.588,0,1,0,22.474,21.606l2.683-2.791-22.474-21.606Z" transform="translate(-244.833 -368.221)" fill="#e6e6e6"/><path d="M291.064,420.7a3.479,3.479,0,0,0,.1,4.913l20.613,19.817a3.475,3.475,0,1,0,4.817-5.01l-20.613-19.817a3.479,3.479,0,0,0-4.913.1Z" transform="translate(-260.728 -358.982)" fill="#535461"/><path d="M493.433,250.138l2.684-2.791a15.588,15.588,0,1,0-22.474-21.606l-2.683,2.791Z" transform="translate(-401.273 -204.59)" fill="#e6e6e6"/><path d="M460.212,244.76a3.479,3.479,0,0,0,.1,4.913l20.613,19.817a3.475,3.475,0,0,0,4.817-5.01l-20.613-19.817A3.479,3.479,0,0,0,460.212,244.76Z" transform="translate(-392.169 -222.26)" fill="#535461"/><path d="M502.593,442.172v-1.61s7.026-3.952,12.734,0v1.464Z" transform="translate(-425.855 -373.875)" fill="#535461"/><path d="M789.529,442.172v-1.61s7.026-3.952,12.734,0v1.464Z" transform="translate(-648.826 -373.875)" fill="#535461"/><path d="M472.129,446.592H465.25s-1.756-2.049-7.611-1.9-7.026,1.9-7.026,1.9-5.782,3.879-7.1,8.709c0,0-7.1,21.3-7.245,37.984s6.294,19.028,9.661,19.467,9.368-.146,15.223-14.93l2.488-8.636s.439-5.123,5.709-1.9,9.953-1.756,9.953-1.756h19.76s6.587,4.1,12.588.878c0,0,2.342-3.074,4.537,7.319,0,0,6.733,21.37,17.126,19.175s9.221-20.053,9.221-20.053-1.391-27.3-7.1-36.959c0,0-5.489-10.026-9.148-10.466,0,0-7.9-1.464-10.978-.146l-1.756,1.464Z" transform="translate(-374.314 -378.442)" fill="#e6e6e6"/><circle cx="12.734" cy="12.734" r="12.734" transform="translate(69.126 69.76)" fill="#535461"/><circle cx="12.734" cy="12.734" r="12.734" transform="translate(135.579 69.76)" fill="#535461"/><path d="M519.124,485.675l-1.7,1.5a.787.787,0,0,1-1.041,0l-1.7-1.5a.786.786,0,0,1-.266-.585v-4.132a.788.788,0,0,1,.788-.786h3.4a.786.786,0,0,1,.788.785v4.131A.786.786,0,0,1,519.124,485.675Z" transform="translate(-435.044 -406.02)" fill="#e6e6e6"/><path d="M519.124,524.414l-1.7-1.5a.787.787,0,0,0-1.041,0l-1.7,1.5a.786.786,0,0,0-.266.585v4.128a.786.786,0,0,0,.785.788h3.406a.786.786,0,0,0,.787-.785V525A.786.786,0,0,0,519.124,524.414Z" transform="translate(-435.044 -439.082)" fill="#e6e6e6"/><path d="M493.673,511.151l1.5-1.7a.787.787,0,0,0,0-1.041l-1.5-1.7a.788.788,0,0,0-.585-.266H488.96a.788.788,0,0,0-.786.788v3.4a.786.786,0,0,0,.785.787h4.131A.786.786,0,0,0,493.673,511.151Z" transform="translate(-414.65 -426.434)" fill="#e6e6e6"/><path d="M532.4,511.146l-1.5-1.7a.786.786,0,0,1,0-1.041l1.5-1.7a.786.786,0,0,1,.586-.266h4.128a.786.786,0,0,1,.787.785v3.406a.786.786,0,0,1-.785.788h-4.129A.786.786,0,0,1,532.4,511.146Z" transform="translate(-447.7 -426.429)" fill="#e6e6e6"/><circle cx="9.221" cy="9.221" r="9.221" transform="translate(89.911 87.178)" fill="#535461"/><circle cx="9.221" cy="9.221" r="9.221" transform="translate(121.82 87.178)" fill="#535461"/><circle cx="6.148" cy="6.148" r="6.148" transform="translate(92.985 90.252)" fill="#e6e6e6"/><path d="M588.257,569.423a4.245,4.245,0,1,1,4.245-4.245A4.245,4.245,0,0,1,588.257,569.423Zm0-8.2a3.952,3.952,0,1,0,3.952,3.952,3.952,3.952,0,0,0-3.952-3.952Z" transform="translate(-489.124 -468.778)" fill="#535461"/><circle cx="6.148" cy="6.148" r="6.148" transform="translate(124.894 90.252)" fill="#e6e6e6"/><path d="M731.4,569.423a4.245,4.245,0,1,1,4.245-4.245A4.245,4.245,0,0,1,731.4,569.423Zm0-8.2a3.952,3.952,0,1,0,3.952,3.952,3.952,3.952,0,0,0-3.952-3.952Z" transform="translate(-600.354 -468.778)" fill="#535461"/><circle cx="2.635" cy="2.635" r="2.635" transform="translate(112.746 94.79)" fill="#535461"/><circle cx="0.575" cy="0.575" r="0.575" transform="translate(110.778 88.055)" fill="#535461"/><circle cx="0.575" cy="0.575" r="0.575" transform="translate(112.933 88.055)" fill="#535461"/><circle cx="0.575" cy="0.575" r="0.575" transform="translate(112.646 90.785)" fill="#535461"/><circle cx="0.585" cy="0.585" r="0.585" transform="translate(114.648 90.838)" fill="#535461"/><circle cx="0.575" cy="0.575" r="0.575" transform="translate(116.668 90.785)" fill="#535461"/><circle cx="0.575" cy="0.575" r="0.575" transform="translate(111.784 89.493)" fill="#535461"/><circle cx="0.585" cy="0.585" r="0.585" transform="translate(113.624 89.52)" fill="#535461"/><circle cx="0.585" cy="0.585" r="0.585" transform="translate(115.527 89.52)" fill="#535461"/><circle cx="0.575" cy="0.575" r="0.575" transform="translate(117.53 89.493)" fill="#535461"/><circle cx="0.585" cy="0.585" r="0.585" transform="translate(114.648 88.056)" fill="#535461"/><circle cx="0.585" cy="0.585" r="0.585" transform="translate(116.697 88.056)" fill="#535461"/><circle cx="0.575" cy="0.575" r="0.575" transform="translate(118.393 88.055)" fill="#535461"/><path d="M574.214,458.847a1.022,1.022,0,0,0-1.021,1.021v3.074a1.022,1.022,0,0,0,1.021,1.021h.732a1.022,1.022,0,0,0,1.021-1.021v-3.074a1.022,1.022,0,0,0-1.021-1.021Z" transform="translate(-480.717 -389.449)" fill="#535461"/><path d="M765.942,458.847a1.022,1.022,0,0,0-1.021,1.021v3.074a1.022,1.022,0,0,0,1.021,1.021h.732a1.022,1.022,0,0,0,1.021-1.021v-3.074a1.022,1.022,0,0,0-1.021-1.021Z" transform="translate(-629.704 -389.449)" fill="#535461"/><circle cx="3.513" cy="3.513" r="3.513" transform="translate(144.947 71.224)" fill="#e6e6e6"/><circle cx="3.513" cy="3.513" r="3.513" transform="translate(137.482 78.689)" fill="#e6e6e6"/><circle cx="3.513" cy="3.513" r="3.513" transform="translate(152.705 78.25)" fill="#e6e6e6"/><circle cx="3.513" cy="3.513" r="3.513" transform="translate(145.533 86.007)" fill="#e6e6e6"/><path d="M597.164,449.654a2.964,2.964,0,0,0-2.961,2.961v13.1a2.964,2.964,0,0,0,2.961,2.961h30.08a2.964,2.964,0,0,0,2.961-2.961v-13.1a2.964,2.964,0,0,0-2.961-2.961Z" transform="translate(-497.044 -382.306)" fill="#535461"/><path d="M818.429,476.277h-4.764l2.3-3.942Zm-4.254-.293H817.9l-1.927-3.083Z" transform="translate(-667.582 -399.931)" fill="#535461"/><path d="M785.93,511.918h-3.952v-3.513h3.952Zm-3.659-.293h3.367V508.7h-3.367Z" transform="translate(-642.959 -427.96)" fill="#535461"/><path d="M851.476,508.857a2.2,2.2,0,1,1,2.2-2.2A2.2,2.2,0,0,1,851.476,508.857Zm0-4.1a1.9,1.9,0,1,0,1.9,1.9,1.9,1.9,0,0,0-1.9-1.9Z" transform="translate(-695.258 -424.899)" fill="#535461"/><rect width="0.293" height="4.658" transform="translate(147.26 87.977) rotate(-45)" fill="#535461"/><rect width="4.659" height="0.293" transform="translate(147.262 90.989) rotate(-43.734)" fill="#535461"/><path d="M228.639,257.628c-7.992,2.2-16.743,3.862-19.879,1.289a17.562,17.562,0,0,0,2.791-8.441,4.853,4.853,0,0,1,1.428-3.367,5.433,5.433,0,0,1,4.532-1.473l2.074.291q.1.015.208.033a4.851,4.851,0,0,1,3.9,4.087A10.48,10.48,0,0,0,228.639,257.628Z" transform="translate(-197.524 -223.727)" fill="#2f2e41"/><path d="M294.513,359.355l3.107.641a1.632,1.632,0,0,1,1.169,2.244h0a1.632,1.632,0,0,1-2.353.744l-4.753-2.923-8.072-18.976,4.181-1.209Z" transform="translate(-255.689 -296.999)" fill="#a0616a"/><path d="M60.461,377.336l-2.353.684-1.781-3.678,1.811-.944Z" transform="translate(-43.77 -290.079)" fill="#a0616a"/><path d="M59.445,441.793l-2.886-.764.452-4.959,2.484.153Z" transform="translate(-43.95 -338.779)" fill="#a0616a"/><path d="M175.287,439.79,172.23,441.8l-11.758-13.3a2.621,2.621,0,0,1,.619-3.985l14.648-8.752,2.243,6.445-7.627,7.157Z" transform="translate(-159.49 -355.972)" fill="#2f2e41"/><path d="M220.926,534.127l-.023.03a5.208,5.208,0,0,1-1.3,2.943,2.28,2.28,0,0,1-2.769,1.251h0a2.28,2.28,0,0,1-1.581-2.428l.571-5.106a3.813,3.813,0,0,0,2.944-2.61l1.332.907a3.5,3.5,0,0,1,.831,5.014Z" transform="translate(-202.554 -443.347)" fill="#2f2e41"/><circle cx="4.705" cy="4.705" r="4.705" transform="translate(15.115 23.397)" fill="#a0616a"/><path d="M237.679,290.976l-7.418,6.144-.578-2.529,1.295-1.974a14.343,14.343,0,0,0-.49-6.337l4.84,0A7.076,7.076,0,0,0,237.679,290.976Z" transform="translate(-213.783 -255.352)" fill="#a0616a"/><path d="M230.035,321.266l-10.014,3.05-.779-3.562c-1.877-2.52-2.693-4.82-1.465-6.7l-.618-2.825a14.2,14.2,0,0,0,3.932-4.3l6.161-2.408,4.53.279,1.338,4.482Z" transform="translate(-204.051 -269.527)" fill="#e5d223"/><path d="M285.99,313.875a10.318,10.318,0,0,0-5.979,1.832l.611-9.936h0a3.606,3.606,0,0,1,2.841,2.163Z" transform="translate(-252.891 -270.498)" fill="#e5d223"/><path d="M218,424.011l-3.179-.782.468-27.008,4.268-4.674-.955-5.925-.618-6.638,10.426-2.585c3.524,6.4,5.654,12.216,2.545,15.85Z" transform="translate(-202.235 -325.38)" fill="#2f2e41"/><path d="M199.211,604.6l-.043.017a6.346,6.346,0,0,1-3.212,2.253,2.779,2.779,0,0,1-3.678-.434h0a2.779,2.779,0,0,1-.125-3.53l3.805-4.972a4.647,4.647,0,0,0,4.715-.875l.82,1.784a4.267,4.267,0,0,1-2.284,5.758Z" transform="translate(-184.176 -496.846)" fill="#2f2e41"/><path d="M161.788,383.682,159,386.071a1.81,1.81,0,0,0,.433,3.025h0a1.81,1.81,0,0,0,2.34-.795l2.017-3.763,9.252-16.884-3.48-.654Z" transform="translate(-158.364 -318.078)" fill="#a0616a"/><path d="M209.923,342.976a8.569,8.569,0,0,0-4.813-.443c.275-3.405.842-6.448,2.686-7.9l2.621.308Z" transform="translate(-194.688 -292.924)" fill="#e5d223"/><path d="M235.754,253.837l-10.064-.619.124-2.013q5.27-3.553,10.064.619Z" transform="translate(-210.68 -226.826)" fill="#2f2e41"/></g></svg>